<svg width="18" height="18" viewBox="0 0 18 18" fill="none" xmlns="http://www.w3.org/2000/svg">
<path d="M0 2.41993C0 1.84272 0.202708 1.36653 0.608108 0.991359C1.01351 0.616173 1.54055 0.428589 2.18919 0.428589C2.82626 0.428589 3.34169 0.613281 3.73552 0.982701C4.14092 1.36365 4.34363 1.86003 4.34363 2.47188C4.34363 3.02599 4.14672 3.48774 3.7529 3.85716C3.3475 4.23811 2.81467 4.42859 2.15444 4.42859H2.13707C1.49999 4.42859 0.984562 4.23811 0.590734 3.85716C0.196905 3.47621 0 2.99712 0 2.41993ZM0.225869 17.5714V6.00434H4.08301V17.5714H0.225869ZM6.22008 17.5714H10.0772V11.1126C10.0772 10.7085 10.1236 10.3968 10.2162 10.1775C10.3784 9.785 10.6245 9.4531 10.9546 9.18183C11.2847 8.91054 11.6988 8.77491 12.1969 8.77491C13.4942 8.77491 14.1429 9.64647 14.1429 11.3896V17.5714H18V10.9394C18 9.23089 17.5946 7.93508 16.7838 7.05196C15.973 6.16885 14.9015 5.72729 13.5695 5.72729C12.0753 5.72729 10.9112 6.36798 10.0772 7.64936V7.684H10.0598L10.0772 7.64936V6.00434H6.22008C6.24324 6.37375 6.25483 7.52237 6.25483 9.45023C6.25483 11.3781 6.24324 14.0851 6.22008 17.5714Z" fill="url(#paint0_linear_329_1944)"/>
<defs>
<linearGradient id="paint0_linear_329_1944" x1="9" y1="0.428589" x2="9" y2="17.5714" gradientUnits="userSpaceOnUse">
<stop stop-color="#1839DE"/>
<stop offset="1" stop-color="#09165D"/>
</linearGradient>
</defs>
</svg>
