<svg width="20" height="17" viewBox="0 0 20 17" fill="none" xmlns="http://www.w3.org/2000/svg">
<path d="M17.9841 0.350007C17.9841 0.350007 19.7647 -0.344368 19.6157 1.34184C19.5667 2.03622 19.1216 4.46676 18.7751 7.0953L17.5881 14.8824C17.5881 14.8824 17.4891 16.0232 16.5985 16.2216C15.7084 16.4196 14.3728 15.5273 14.1253 15.3288C13.9273 15.1798 10.4156 12.9478 9.17902 11.8569C8.83251 11.559 8.43651 10.9641 9.22851 10.2697L14.4223 5.30963C15.0159 4.7138 15.6094 3.32505 13.1363 5.01171L6.21085 9.72338C6.21085 9.72338 5.41931 10.2198 3.93568 9.77334L0.720016 8.78105C0.720016 8.78105 -0.467068 8.03717 1.56106 7.2933C6.50785 4.96222 12.5927 2.58209 17.9841 0.350007Z" fill="url(#paint0_linear_329_1951)"/>
<defs>
<linearGradient id="paint0_linear_329_1951" x1="9.99966" y1="0.208374" x2="9.99966" y2="16.2501" gradientUnits="userSpaceOnUse">
<stop stop-color="#1839DE"/>
<stop offset="1" stop-color="#09165D"/>
</linearGradient>
</defs>
</svg>
