<svg width="80" height="81" viewBox="0 0 80 81" fill="none" xmlns="http://www.w3.org/2000/svg">
<rect y="0.199585" width="80" height="80.1058" rx="40" fill="black"/>
<path d="M26.6667 28.9496C26.6667 27.513 27.2374 26.1353 28.2532 25.1195C29.269 24.1036 30.6467 23.533 32.0833 23.533H47.9167C49.3533 23.533 50.731 24.1036 51.7468 25.1195C52.7627 26.1353 53.3333 27.513 53.3333 28.9496V51.4496C53.3333 52.161 53.1932 52.8653 52.921 53.5225C52.6488 54.1797 52.2498 54.7768 51.7468 55.2798C51.2439 55.7828 50.6467 56.1818 49.9895 56.454C49.3324 56.7262 48.628 56.8663 47.9167 56.8663H32.0833C31.372 56.8663 30.6677 56.7262 30.0105 56.454C29.3533 56.1818 28.7562 55.7828 28.2532 55.2798C27.7502 54.7768 27.3512 54.1797 27.079 53.5225C26.8068 52.8653 26.6667 52.161 26.6667 51.4496V28.9496ZM35 28.533C34.116 28.533 33.2681 28.8841 32.643 29.5093C32.0179 30.1344 31.6667 30.9822 31.6667 31.8663V33.533C31.6667 34.417 32.0179 35.2649 32.643 35.89C33.2681 36.5151 34.116 36.8663 35 36.8663H45C45.8841 36.8663 46.7319 36.5151 47.357 35.89C47.9821 35.2649 48.3333 34.417 48.3333 33.533V31.8663C48.3333 30.9822 47.9821 30.1344 47.357 29.5093C46.7319 28.8841 45.8841 28.533 45 28.533H35ZM35.8333 42.283C35.8333 41.7304 35.6138 41.2005 35.2231 40.8098C34.8324 40.4191 34.3025 40.1996 33.75 40.1996C33.1975 40.1996 32.6676 40.4191 32.2769 40.8098C31.8862 41.2005 31.6667 41.7304 31.6667 42.283C31.6667 42.8355 31.8862 43.3654 32.2769 43.7561C32.6676 44.1468 33.1975 44.3663 33.75 44.3663C34.3025 44.3663 34.8324 44.1468 35.2231 43.7561C35.6138 43.3654 35.8333 42.8355 35.8333 42.283ZM33.75 51.033C34.3025 51.033 34.8324 50.8135 35.2231 50.4228C35.6138 50.0321 35.8333 49.5022 35.8333 48.9496C35.8333 48.3971 35.6138 47.8672 35.2231 47.4765C34.8324 47.0858 34.3025 46.8663 33.75 46.8663C33.1975 46.8663 32.6676 47.0858 32.2769 47.4765C31.8862 47.8672 31.6667 48.3971 31.6667 48.9496C31.6667 49.5022 31.8862 50.0321 32.2769 50.4228C32.6676 50.8135 33.1975 51.033 33.75 51.033ZM48.3333 42.283C48.3333 41.7304 48.1138 41.2005 47.7231 40.8098C47.3324 40.4191 46.8025 40.1996 46.25 40.1996C45.6975 40.1996 45.1676 40.4191 44.7769 40.8098C44.3862 41.2005 44.1667 41.7304 44.1667 42.283C44.1667 42.8355 44.3862 43.3654 44.7769 43.7561C45.1676 44.1468 45.6975 44.3663 46.25 44.3663C46.8025 44.3663 47.3324 44.1468 47.7231 43.7561C48.1138 43.3654 48.3333 42.8355 48.3333 42.283ZM46.25 51.033C46.8025 51.033 47.3324 50.8135 47.7231 50.4228C48.1138 50.0321 48.3333 49.5022 48.3333 48.9496C48.3333 48.3971 48.1138 47.8672 47.7231 47.4765C47.3324 47.0858 46.8025 46.8663 46.25 46.8663C45.6975 46.8663 45.1676 47.0858 44.7769 47.4765C44.3862 47.8672 44.1667 48.3971 44.1667 48.9496C44.1667 49.5022 44.3862 50.0321 44.7769 50.4228C45.1676 50.8135 45.6975 51.033 46.25 51.033ZM42.0833 42.283C42.0833 41.7304 41.8638 41.2005 41.4731 40.8098C41.0824 40.4191 40.5525 40.1996 40 40.1996C39.4475 40.1996 38.9176 40.4191 38.5269 40.8098C38.1362 41.2005 37.9167 41.7304 37.9167 42.283C37.9167 42.8355 38.1362 43.3654 38.5269 43.7561C38.9176 44.1468 39.4475 44.3663 40 44.3663C40.5525 44.3663 41.0824 44.1468 41.4731 43.7561C41.8638 43.3654 42.0833 42.8355 42.0833 42.283ZM40 51.033C40.5525 51.033 41.0824 50.8135 41.4731 50.4228C41.8638 50.0321 42.0833 49.5022 42.0833 48.9496C42.0833 48.3971 41.8638 47.8672 41.4731 47.4765C41.0824 47.0858 40.5525 46.8663 40 46.8663C39.4475 46.8663 38.9176 47.0858 38.5269 47.4765C38.1362 47.8672 37.9167 48.3971 37.9167 48.9496C37.9167 49.5022 38.1362 50.0321 38.5269 50.4228C38.9176 50.8135 39.4475 51.033 40 51.033Z" fill="url(#paint0_linear_83_568)"/>
<defs>
<linearGradient id="paint0_linear_83_568" x1="40" y1="23.533" x2="40" y2="56.8663" gradientUnits="userSpaceOnUse">
<stop stop-color="#A5E0FB"/>
<stop offset="1" stop-color="#9BDAF8"/>
</linearGradient>
</defs>
</svg>
