<svg width="32" height="32" viewBox="0 0 32 32" fill="none" xmlns="http://www.w3.org/2000/svg">
<rect width="32" height="32" rx="8" fill="#161616"/>
<rect x="0.5" y="0.5" width="31" height="31" rx="7.5" stroke="#BCBCBC" stroke-opacity="0.2"/>
<path fill-rule="evenodd" clip-rule="evenodd" d="M20.2386 24.9974C18.9407 24.9497 15.2623 24.4413 11.41 20.5899C7.5586 16.7376 7.05114 13.0601 7.00247 11.7613C6.93036 9.78193 8.44642 7.85938 10.1977 7.10856C10.4086 7.0175 10.6396 6.98282 10.8679 7.00795C11.0962 7.03307 11.3141 7.11713 11.5002 7.25187C12.9423 8.30284 13.9374 9.8928 14.7918 11.143C14.9798 11.4176 15.0602 11.7519 15.0177 12.082C14.9751 12.4121 14.8126 12.715 14.5611 12.933L12.8026 14.2391C12.7176 14.3004 12.6578 14.3905 12.6343 14.4926C12.6107 14.5947 12.6251 14.7019 12.6746 14.7943C13.073 15.5181 13.7814 16.5961 14.5926 17.4073C15.4039 18.2185 16.5332 18.9738 17.3075 19.4172C17.4046 19.4717 17.5188 19.487 17.6268 19.4598C17.7347 19.4327 17.8282 19.3652 17.8879 19.2712L19.0326 17.5289C19.2431 17.2494 19.5536 17.0621 19.899 17.0063C20.2444 16.9506 20.5981 17.0306 20.8858 17.2297C22.154 18.1076 23.634 19.0856 24.7174 20.4727C24.8631 20.6601 24.9557 20.8832 24.9857 21.1187C25.0157 21.3541 24.9818 21.5933 24.8877 21.8112C24.1333 23.5715 22.2243 25.0704 20.2386 24.9974Z" fill="white"/>
</svg>
