<svg width="264" height="39" viewBox="0 0 264 39" fill="none" xmlns="http://www.w3.org/2000/svg">
<path d="M12.9039 38V12.176H20.3919V38H12.9039ZM16.6479 8.576C15.2719 8.576 14.1519 8.176 13.2879 7.376C12.4239 6.576 11.9919 5.584 11.9919 4.4C11.9919 3.216 12.4239 2.224 13.2879 1.424C14.1519 0.623998 15.2719 0.223997 16.6479 0.223997C18.0239 0.223997 19.1439 0.607998 20.0079 1.376C20.8719 2.112 21.3039 3.072 21.3039 4.256C21.3039 5.504 20.8719 6.544 20.0079 7.376C19.1759 8.176 18.0559 8.576 16.6479 8.576ZM43.0374 11.792C45.0854 11.792 46.9094 12.208 48.5094 13.04C50.1414 13.84 51.4214 15.088 52.3494 16.784C53.2774 18.448 53.7414 20.592 53.7414 23.216V38H46.2534V24.368C46.2534 22.288 45.7894 20.752 44.8614 19.76C43.9654 18.768 42.6854 18.272 41.0214 18.272C39.8374 18.272 38.7654 18.528 37.8054 19.04C36.8774 19.52 36.1414 20.272 35.5974 21.296C35.0854 22.32 34.8294 23.632 34.8294 25.232V38H27.3414V12.176H34.4934V19.328L33.1494 17.168C34.0774 15.44 35.4054 14.112 37.1334 13.184C38.8614 12.256 40.8294 11.792 43.0374 11.792ZM71.0889 38.384C68.0489 38.384 65.6809 37.616 63.9849 36.08C62.2889 34.512 61.4409 32.192 61.4409 29.12V6.464H68.9289V29.024C68.9289 30.112 69.2169 30.96 69.7929 31.568C70.3689 32.144 71.1529 32.432 72.1449 32.432C73.3289 32.432 74.3369 32.112 75.1689 31.472L77.1849 36.752C76.4169 37.296 75.4889 37.712 74.4009 38C73.3449 38.256 72.2409 38.384 71.0889 38.384ZM57.4569 18.512V12.752H75.3609V18.512H57.4569ZM93.4074 38.384C90.4634 38.384 87.8714 37.808 85.6314 36.656C83.4234 35.504 81.7114 33.936 80.4954 31.952C79.2794 29.936 78.6714 27.648 78.6714 25.088C78.6714 22.496 79.2634 20.208 80.4474 18.224C81.6634 16.208 83.3114 14.64 85.3914 13.52C87.4714 12.368 89.8234 11.792 92.4474 11.792C94.9754 11.792 97.2474 12.336 99.2634 13.424C101.311 14.48 102.927 16.016 104.111 18.032C105.295 20.016 105.887 22.4 105.887 25.184C105.887 25.472 105.871 25.808 105.839 26.192C105.807 26.544 105.775 26.88 105.743 27.2H84.7674V22.832H101.807L98.9274 24.128C98.9274 22.784 98.6554 21.616 98.1114 20.624C97.5674 19.632 96.8154 18.864 95.8554 18.32C94.8954 17.744 93.7754 17.456 92.4954 17.456C91.2154 17.456 90.0794 17.744 89.0874 18.32C88.1274 18.864 87.3754 19.648 86.8314 20.672C86.2874 21.664 86.0154 22.848 86.0154 24.224V25.376C86.0154 26.784 86.3194 28.032 86.9274 29.12C87.5674 30.176 88.4474 30.992 89.5674 31.568C90.7194 32.112 92.0634 32.384 93.5994 32.384C94.9754 32.384 96.1754 32.176 97.1994 31.76C98.2554 31.344 99.2154 30.72 100.079 29.888L104.063 34.208C102.879 35.552 101.391 36.592 99.5994 37.328C97.8074 38.032 95.7434 38.384 93.4074 38.384ZM110.873 38V12.176H118.025V19.472L117.017 17.36C117.785 15.536 119.017 14.16 120.713 13.232C122.409 12.272 124.473 11.792 126.905 11.792V18.704C126.585 18.672 126.297 18.656 126.041 18.656C125.785 18.624 125.513 18.608 125.225 18.608C123.177 18.608 121.513 19.2 120.233 20.384C118.985 21.536 118.361 23.344 118.361 25.808V38H110.873Z" fill="#09165D"/>
<path d="M147.168 38.576C144.576 38.576 142.16 38.16 139.92 37.328C137.712 36.464 135.792 35.248 134.16 33.68C132.528 32.112 131.248 30.272 130.32 28.16C129.424 26.048 128.976 23.728 128.976 21.2C128.976 18.672 129.424 16.352 130.32 14.24C131.248 12.128 132.528 10.288 134.16 8.72C135.824 7.152 137.76 5.952 139.968 5.12C142.176 4.256 144.592 3.824 147.216 3.824C150.128 3.824 152.752 4.336 155.088 5.36C157.456 6.352 159.44 7.824 161.04 9.776L156.048 14.384C154.896 13.072 153.616 12.096 152.208 11.456C150.8 10.784 149.264 10.448 147.6 10.448C146.032 10.448 144.592 10.704 143.28 11.216C141.968 11.728 140.832 12.464 139.872 13.424C138.912 14.384 138.16 15.52 137.616 16.832C137.104 18.144 136.848 19.6 136.848 21.2C136.848 22.8 137.104 24.256 137.616 25.568C138.16 26.88 138.912 28.016 139.872 28.976C140.832 29.936 141.968 30.672 143.28 31.184C144.592 31.696 146.032 31.952 147.6 31.952C149.264 31.952 150.8 31.632 152.208 30.992C153.616 30.32 154.896 29.312 156.048 27.968L161.04 32.576C159.44 34.528 157.456 36.016 155.088 37.04C152.752 38.064 150.112 38.576 147.168 38.576ZM177.161 38.384C174.409 38.384 171.961 37.808 169.817 36.656C167.705 35.504 166.025 33.936 164.777 31.952C163.561 29.936 162.953 27.648 162.953 25.088C162.953 22.496 163.561 20.208 164.777 18.224C166.025 16.208 167.705 14.64 169.817 13.52C171.961 12.368 174.409 11.792 177.161 11.792C179.881 11.792 182.313 12.368 184.457 13.52C186.601 14.64 188.281 16.192 189.497 18.176C190.713 20.16 191.321 22.464 191.321 25.088C191.321 27.648 190.713 29.936 189.497 31.952C188.281 33.936 186.601 35.504 184.457 36.656C182.313 37.808 179.881 38.384 177.161 38.384ZM177.161 32.24C178.409 32.24 179.529 31.952 180.521 31.376C181.513 30.8 182.297 29.984 182.873 28.928C183.449 27.84 183.737 26.56 183.737 25.088C183.737 23.584 183.449 22.304 182.873 21.248C182.297 20.192 181.513 19.376 180.521 18.8C179.529 18.224 178.409 17.936 177.161 17.936C175.913 17.936 174.793 18.224 173.801 18.8C172.809 19.376 172.009 20.192 171.401 21.248C170.825 22.304 170.537 23.584 170.537 25.088C170.537 26.56 170.825 27.84 171.401 28.928C172.009 29.984 172.809 30.8 173.801 31.376C174.793 31.952 175.913 32.24 177.161 32.24ZM207.414 38.384C204.982 38.384 202.79 37.84 200.838 36.752C198.886 35.632 197.334 34.08 196.182 32.096C195.062 30.112 194.502 27.776 194.502 25.088C194.502 22.368 195.062 20.016 196.182 18.032C197.334 16.048 198.886 14.512 200.838 13.424C202.79 12.336 204.982 11.792 207.414 11.792C209.59 11.792 211.494 12.272 213.126 13.232C214.758 14.192 216.022 15.648 216.918 17.6C217.814 19.552 218.262 22.048 218.262 25.088C218.262 28.096 217.83 30.592 216.966 32.576C216.102 34.528 214.854 35.984 213.222 36.944C211.622 37.904 209.686 38.384 207.414 38.384ZM208.71 32.24C209.926 32.24 211.03 31.952 212.022 31.376C213.014 30.8 213.798 29.984 214.374 28.928C214.982 27.84 215.286 26.56 215.286 25.088C215.286 23.584 214.982 22.304 214.374 21.248C213.798 20.192 213.014 19.376 212.022 18.8C211.03 18.224 209.926 17.936 208.71 17.936C207.462 17.936 206.342 18.224 205.35 18.8C204.358 19.376 203.558 20.192 202.95 21.248C202.374 22.304 202.086 23.584 202.086 25.088C202.086 26.56 202.374 27.84 202.95 28.928C203.558 29.984 204.358 30.8 205.35 31.376C206.342 31.952 207.462 32.24 208.71 32.24ZM215.478 38V32.72L215.622 25.04L215.142 17.408V2.384H222.63V38H215.478ZM242.376 38.384C239.432 38.384 236.84 37.808 234.6 36.656C232.392 35.504 230.68 33.936 229.464 31.952C228.248 29.936 227.64 27.648 227.64 25.088C227.64 22.496 228.232 20.208 229.416 18.224C230.632 16.208 232.28 14.64 234.36 13.52C236.44 12.368 238.792 11.792 241.416 11.792C243.944 11.792 246.216 12.336 248.232 13.424C250.28 14.48 251.896 16.016 253.08 18.032C254.264 20.016 254.856 22.4 254.856 25.184C254.856 25.472 254.84 25.808 254.808 26.192C254.776 26.544 254.744 26.88 254.712 27.2H233.736V22.832H250.776L247.896 24.128C247.896 22.784 247.624 21.616 247.08 20.624C246.536 19.632 245.784 18.864 244.824 18.32C243.864 17.744 242.744 17.456 241.464 17.456C240.184 17.456 239.048 17.744 238.056 18.32C237.096 18.864 236.344 19.648 235.8 20.672C235.256 21.664 234.984 22.848 234.984 24.224V25.376C234.984 26.784 235.288 28.032 235.896 29.12C236.536 30.176 237.416 30.992 238.536 31.568C239.688 32.112 241.032 32.384 242.568 32.384C243.944 32.384 245.144 32.176 246.168 31.76C247.224 31.344 248.184 30.72 249.048 29.888L253.032 34.208C251.848 35.552 250.36 36.592 248.568 37.328C246.776 38.032 244.712 38.384 242.376 38.384Z" fill="white"/>
</svg>
