<svg width="80" height="80" viewBox="0 0 80 80" fill="none" xmlns="http://www.w3.org/2000/svg">
<rect width="80" height="80" rx="16" fill="#161616"/>
<rect x="0.5" y="0.5" width="79" height="79" rx="15.5" stroke="#BCBCBC" stroke-opacity="0.2"/>
<path d="M28 35.6257C28 29.1793 33.3984 24 40 24C46.6016 24 52 29.1793 52 35.6257C52 39.3922 50.4432 42.7906 47.528 44.933C47.3496 45.055 47.2203 45.2365 47.1632 45.445C47.0768 45.8098 46.9824 46.2274 46.8848 46.6754C46.862 46.7833 46.8028 46.88 46.7172 46.9493C46.6315 47.0186 46.5246 47.0564 46.4144 47.0562H33.5856C33.4754 47.0564 33.3685 47.0186 33.2828 46.9493C33.1972 46.88 33.138 46.7833 33.1152 46.6754C33.0176 46.2274 32.9232 45.8098 32.8368 45.4434C32.7794 45.2355 32.6501 45.0546 32.472 44.933C29.5568 42.789 28 39.3922 28 35.6257ZM34.24 49.4563C34.1699 49.4566 34.1007 49.4723 34.0372 49.5021C33.9737 49.5319 33.9175 49.5752 33.8724 49.629C33.8273 49.6827 33.7945 49.7456 33.7762 49.8133C33.7579 49.881 33.7546 49.9519 33.7664 50.0211C33.9152 50.9107 34.0256 51.7059 34.0592 52.2563C34.16 53.9219 35.3872 55.2947 37.0272 55.6483L37.3408 55.7171C39.0935 56.0943 40.9065 56.0943 42.6592 55.7171L42.9728 55.6483C44.6128 55.2947 45.84 53.9219 45.9408 52.2563C45.9744 51.7075 46.0848 50.9123 46.2352 50.0211C46.2473 49.9517 46.2441 49.8805 46.2259 49.8125C46.2076 49.7444 46.1747 49.6812 46.1294 49.6273C46.0841 49.5733 46.0276 49.5299 45.9638 49.5001C45.9 49.4703 45.8304 49.4548 45.76 49.4547L34.24 49.4563Z" fill="url(#paint0_linear_83_687)"/>
<defs>
<linearGradient id="paint0_linear_83_687" x1="40" y1="24" x2="40" y2="56" gradientUnits="userSpaceOnUse">
<stop stop-color="#BCF1FA"/>
<stop offset="1" stop-color="#AFECF7"/>
</linearGradient>
</defs>
</svg>
