<svg width="80" height="80" viewBox="0 0 80 80" fill="none" xmlns="http://www.w3.org/2000/svg">
<rect width="80" height="80" rx="16" fill="#161616"/>
<rect x="0.5" y="0.5" width="79" height="79" rx="15.5" stroke="#BCBCBC" stroke-opacity="0.2"/>
<g clip-path="url(#clip0_83_668)">
<path d="M48.0003 26.1438C50.4136 27.5372 52.4211 29.5367 53.8241 31.9443C55.2271 34.3519 55.977 37.0843 55.9995 39.8708C56.022 42.6573 55.3163 45.4014 53.9524 47.8313C52.5885 50.2613 50.6135 52.293 48.2231 53.7251C45.8327 55.1573 43.1096 55.9403 40.3236 55.9967C37.5375 56.0531 34.785 55.3809 32.3386 54.0466C29.8922 52.7123 27.8366 50.7623 26.3755 48.3895C24.9144 46.0166 24.0983 43.3034 24.008 40.5182L24 39.9998L24.008 39.4814C24.0976 36.7182 24.9017 34.0254 26.3419 31.6654C27.782 29.3055 29.8091 27.359 32.2255 26.0156C34.6419 24.6723 37.3652 23.9781 40.1298 24.0005C42.8944 24.023 45.606 24.7614 48.0003 26.1438ZM40.0002 30.3998C39.6083 30.3999 39.23 30.5438 38.9372 30.8042C38.6443 31.0646 38.4572 31.4234 38.4114 31.8126L38.4002 31.9998V39.9998L38.4146 40.2094C38.4511 40.487 38.5597 40.7502 38.7298 40.9726L38.869 41.1326L43.669 45.9326L43.8194 46.0638C44.1 46.2815 44.4451 46.3997 44.8003 46.3997C45.1554 46.3997 45.5005 46.2815 45.7811 46.0638L45.9315 45.931L46.0643 45.7806C46.282 45.5 46.4001 45.155 46.4001 44.7998C46.4001 44.4447 46.282 44.0996 46.0643 43.819L45.9315 43.6686L41.6002 39.3358V31.9998L41.589 31.8126C41.5432 31.4234 41.3561 31.0646 41.0632 30.8042C40.7703 30.5438 40.3921 30.3999 40.0002 30.3998Z" fill="url(#paint0_linear_83_668)"/>
</g>
<defs>
<linearGradient id="paint0_linear_83_668" x1="40" y1="24" x2="40" y2="56" gradientUnits="userSpaceOnUse">
<stop stop-color="#A5E0FB"/>
<stop offset="1" stop-color="#9BDAF8"/>
</linearGradient>
<clipPath id="clip0_83_668">
<rect width="32" height="32" fill="white" transform="translate(24 24)"/>
</clipPath>
</defs>
</svg>
