<svg width="80" height="80" viewBox="0 0 80 80" fill="none" xmlns="http://www.w3.org/2000/svg">
<rect width="80" height="80" rx="16" fill="#161616"/>
<rect x="0.5" y="0.5" width="79" height="79" rx="15.5" stroke="#BCBCBC" stroke-opacity="0.2"/>
<g clip-path="url(#clip0_83_677)">
<path fill-rule="evenodd" clip-rule="evenodd" d="M47.3351 55.9954C45.0277 55.9105 38.4883 55.0068 31.6398 48.1598C24.7928 41.3112 23.8907 34.7735 23.8041 32.4645C23.6759 28.9457 26.3711 25.5278 29.4846 24.193C29.8595 24.0311 30.2701 23.9695 30.676 24.0141C31.0819 24.0588 31.4693 24.2082 31.8 24.4478C34.3638 26.3162 36.1328 29.1428 37.6519 31.3653C37.9861 31.8535 38.129 32.4477 38.0534 33.0346C37.9777 33.6215 37.6888 34.16 37.2417 34.5476L34.1154 36.8694C33.9644 36.9785 33.8581 37.1387 33.8162 37.3202C33.7744 37.5018 33.7999 37.6923 33.8879 37.8565C34.5962 39.1432 35.8556 41.0597 37.2978 42.5018C38.7399 43.9439 40.7477 45.2867 42.1241 46.0751C42.2967 46.172 42.4999 46.1991 42.6918 46.1508C42.8837 46.1025 43.0499 45.9825 43.1561 45.8155L45.1911 42.7181C45.5652 42.2211 46.1172 41.8882 46.7313 41.789C47.3454 41.6899 47.974 41.8322 48.4856 42.1861C50.7401 43.7469 53.3713 45.4854 55.2973 47.9515C55.5563 48.2846 55.721 48.6812 55.7743 49.0998C55.8276 49.5184 55.7674 49.9436 55.6002 50.331C54.259 53.4605 50.8651 56.1252 47.3351 55.9954Z" fill="url(#paint0_linear_83_677)"/>
</g>
<defs>
<linearGradient id="paint0_linear_83_677" x1="39.7965" y1="24" x2="39.7965" y2="56" gradientUnits="userSpaceOnUse">
<stop stop-color="#89B6FB"/>
<stop offset="1" stop-color="#80B0F9"/>
</linearGradient>
<clipPath id="clip0_83_677">
<rect width="32" height="32" fill="white" transform="translate(24 24)"/>
</clipPath>
</defs>
</svg>
