<svg width="80" height="80" viewBox="0 0 80 80" fill="none" xmlns="http://www.w3.org/2000/svg">
<rect width="80" height="80" rx="16" fill="#161616"/>
<rect x="0.5" y="0.5" width="79" height="79" rx="15.5" stroke="#BCBCBC" stroke-opacity="0.2"/>
<g clip-path="url(#clip0_83_659)">
<path d="M55.6117 44.043L53.5595 41.9825C53.8208 40.4808 53.7874 38.946 53.461 37.4557L55.4639 35.3953C55.6194 35.2306 55.7233 35.0278 55.7639 34.8099C55.8046 34.592 55.7803 34.3676 55.6938 34.1621C54.8615 32.211 53.6344 30.4343 52.0819 28.9329C51.93 28.7885 51.7406 28.685 51.533 28.6329C51.3253 28.5808 51.1069 28.582 50.8998 28.6363L47.879 29.3699C46.9487 28.7343 45.9397 28.2101 44.8746 27.809L44.1358 25.1241C44.0809 24.9064 43.9598 24.7088 43.7875 24.5561C43.6153 24.4034 43.3995 24.3024 43.1672 24.2656C42.144 24.0838 41.1051 23.995 40.0642 24.0002C38.7619 24.0061 37.4655 24.1687 36.2061 24.4841C35.996 24.5343 35.8041 24.6378 35.6509 24.7835C35.4976 24.9292 35.3888 25.1116 35.336 25.3114L34.5479 28.0743C33.6668 28.446 32.8302 28.9065 32.0525 29.448L29.0645 28.7456C28.8547 28.6934 28.6339 28.6964 28.4258 28.7541C28.2176 28.8118 28.0298 28.9222 27.8824 29.0734C26.2501 30.6856 25.0015 32.6127 24.2213 34.724C24.1456 34.9281 24.1301 35.148 24.1764 35.3598C24.2227 35.5717 24.3291 35.7675 24.484 35.926L26.5526 37.9709C26.4475 38.6275 26.3928 39.2883 26.3884 39.9533C26.3884 40.4216 26.3884 40.8899 26.4705 41.3581L24.3198 43.6372C24.1751 43.7887 24.0746 43.9736 24.0286 44.1736C23.9825 44.3735 23.9923 44.5815 24.0571 44.7767C24.7318 46.8406 25.8499 48.7488 27.3406 50.3805C27.4906 50.5481 27.6871 50.6722 27.9078 50.7385C28.1285 50.8047 28.3644 50.8105 28.5884 50.7552L31.4122 50.0683C32.4014 50.8584 33.5078 51.5054 34.6957 51.9883L35.5166 54.7824C35.5798 54.985 35.6981 55.1681 35.8595 55.3134C36.0209 55.4586 36.2198 55.5609 36.436 55.6098C37.6197 55.8642 38.8313 55.9953 40.0478 56C41.0176 55.9896 41.9807 55.9011 42.9373 55.7346C43.164 55.6966 43.3749 55.5989 43.5461 55.4527C43.7173 55.3064 43.842 55.1175 43.906 54.9073L44.6776 52.2693C46.0952 51.7874 47.4164 51.0801 48.585 50.1776L51.4745 50.802C51.6912 50.8499 51.9175 50.8402 52.1289 50.7742C52.3402 50.7081 52.5284 50.5881 52.6729 50.4274C54.1127 48.9084 55.2279 47.1376 55.9565 45.2137C56.0154 45.0072 56.0145 44.7893 55.9538 44.5832C55.8931 44.3771 55.7749 44.1904 55.6117 44.043ZM40.1956 46.0254C39.3659 46.0402 38.5414 45.8979 37.7702 45.6067C36.9989 45.3155 36.2963 44.8814 35.7032 44.3295C35.1102 43.7776 34.6386 43.119 34.3158 42.3921C33.9931 41.6653 33.8257 40.8846 33.8234 40.0956C33.8211 39.3066 33.984 38.5251 34.3025 37.7965C34.621 37.0679 35.0888 36.4069 35.6786 35.8519C36.2685 35.2969 36.9686 34.8591 37.7381 34.5639C38.5077 34.2687 39.3314 34.122 40.1611 34.1324C41.8201 34.1283 43.4128 34.7509 44.5889 35.8633C45.7651 36.9757 46.4283 38.4868 46.4326 40.0641C46.437 41.6414 45.7821 43.1558 44.6122 44.274C43.4422 45.3923 41.8529 46.0229 40.1939 46.027" fill="url(#paint0_linear_83_659)"/>
</g>
<defs>
<linearGradient id="paint0_linear_83_659" x1="40" y1="24" x2="40" y2="56" gradientUnits="userSpaceOnUse">
<stop stop-color="#7689F6"/>
<stop offset="1" stop-color="#6A7EED"/>
</linearGradient>
<clipPath id="clip0_83_659">
<rect width="32" height="32" fill="white" transform="translate(24 24)"/>
</clipPath>
</defs>
</svg>
