<svg width="33" height="32" viewBox="0 0 33 32" fill="none" xmlns="http://www.w3.org/2000/svg">
<path d="M31.9567 20.8633C31.6924 22.8733 30.0784 24.3564 28.03 24.4697C26.3865 24.5613 23.9274 24.6527 20.3874 24.6914L19.8268 24.6982L19.8962 25.2539L20.1169 27.0293H20.1179C20.2063 27.7366 20.5493 28.3877 21.0837 28.8594C21.618 29.331 22.3065 29.5909 23.0192 29.5908H24.444C24.697 29.5909 24.9399 29.6913 25.1188 29.8701C25.2978 30.0491 25.3981 30.2927 25.3981 30.5459C25.398 30.7989 25.2977 31.0418 25.1188 31.2207C24.9399 31.3996 24.6971 31.4999 24.444 31.5H8.92841C8.67539 31.4999 8.43253 31.3996 8.2536 31.2207C8.07469 31.0418 7.97442 30.7989 7.9743 30.5459C7.9743 30.2927 8.07459 30.0491 8.2536 29.8701C8.43253 29.6912 8.67541 29.5909 8.92841 29.5908H10.3532C11.0658 29.5906 11.7536 29.33 12.2878 28.8584C12.7551 28.4457 13.0774 27.8965 13.2097 27.292L13.2546 27.0293L13.4772 25.2549L13.5475 24.6992L12.987 24.6924C10.3312 24.6633 8.28332 24.6043 6.73212 24.5381L5.34247 24.4707C3.29472 24.3565 1.68014 22.8732 1.41571 20.8633H31.9567ZM16.6862 0.5C22.2858 0.5 25.8642 0.621593 28.03 0.741211C30.1813 0.861167 31.8553 2.49276 31.987 4.6582C32.091 6.36281 32.1862 8.92635 32.1862 12.6064C32.1862 14.2781 32.1656 15.7196 32.1345 16.9541H1.23798C1.20222 15.5052 1.18452 14.0558 1.18622 12.6064L1.19012 11.2783C1.20969 8.29901 1.29443 6.15066 1.38544 4.6582C1.51304 2.56032 3.08808 0.963661 5.14227 0.757812L5.34247 0.742188C7.50805 0.621609 11.0864 0.500001 16.6862 0.5Z" fill="#C7CEF9" stroke="black"/>
</svg>
