<svg width="80" height="80" viewBox="0 0 80 80" fill="none" xmlns="http://www.w3.org/2000/svg">
<rect width="80" height="80" rx="16" fill="#161616"/>
<rect x="0.5" y="0.5" width="79" height="79" rx="15.5" stroke="#BCBCBC" stroke-opacity="0.2"/>
<path fill-rule="evenodd" clip-rule="evenodd" d="M40.0001 24C45.6068 24 49.1947 24.1222 51.3717 24.2424C53.7716 24.3762 55.6528 26.2041 55.8002 28.6274C55.905 30.3438 56 32.9173 56 36.6061C56 38.5067 55.9748 40.1115 55.936 41.4545H24.0641C24.0196 39.8388 23.9982 38.2224 24.0001 36.6061C24.0001 32.9173 24.0951 30.3447 24.1999 28.6274C24.3473 26.2041 26.2285 24.3762 28.6285 24.2434C30.8054 24.1222 34.3933 24 40.0001 24ZM24.1999 44.5847L24.1863 44.3636H55.8138L55.8002 44.5847C55.6528 47.008 53.7726 48.8359 51.3717 48.9687C49.7193 49.0609 47.2524 49.153 43.7062 49.1918L43.9273 50.9673C44.0006 51.5537 44.2855 52.0931 44.7285 52.4841C45.1716 52.8752 45.7422 53.091 46.3331 53.0909H47.7576C48.1434 53.0909 48.5133 53.2442 48.7861 53.5169C49.0589 53.7897 49.2121 54.1597 49.2121 54.5455C49.2121 54.9312 49.0589 55.3012 48.7861 55.574C48.5133 55.8468 48.1434 56 47.7576 56H32.2425C31.8567 56 31.4868 55.8468 31.214 55.574C30.9412 55.3012 30.788 54.9312 30.788 54.5455C30.788 54.1597 30.9412 53.7897 31.214 53.5169C31.4868 53.2442 31.8567 53.0909 32.2425 53.0909H33.667C34.2578 53.0907 34.8281 52.8749 35.271 52.4838C35.7138 52.0928 35.9986 51.5535 36.0718 50.9673L36.2949 49.1927C32.7477 49.1539 30.2808 49.0609 28.6285 48.9697C26.2285 48.8359 24.3473 47.008 24.1999 44.5847Z" fill="#C7CEF9"/>
</svg>
