<svg width="32" height="32" viewBox="0 0 32 32" fill="none" xmlns="http://www.w3.org/2000/svg">
<path d="M13.4765 0H19.5235C20.4074 0 21.1426 -4.58497e-08 21.7457 0.0492307C22.3735 0.0984615 22.9617 0.210051 23.5184 0.492308C24.3735 0.924998 25.0687 1.6155 25.5043 2.46482C25.7885 3.01785 25.9009 3.60205 25.9504 4.22564C26 4.82462 26 5.55487 26 6.43282V25.5672C26 26.4451 26 27.1754 25.9504 27.7744C25.9009 28.3979 25.7885 28.9822 25.5043 29.5352C25.0691 30.3842 24.3746 31.0747 23.5201 31.5077C22.9617 31.79 22.3735 31.9015 21.7457 31.9508C21.1426 32 20.4074 32 19.5251 32H13.4765C12.5926 32 11.8574 32 11.2543 31.9508C10.6265 31.9015 10.0383 31.79 9.48156 31.5077C8.62698 31.0759 7.93184 30.3866 7.49565 29.5385C7.21148 28.9838 7.09913 28.3996 7.04957 27.776C7 27.177 7 26.4468 7 25.5705V6.43282C7 5.55487 7 4.82462 7.04957 4.22564C7.09913 3.60205 7.21148 3.01785 7.49565 2.46482C7.93128 1.6155 8.62648 0.924998 9.48156 0.492308C10.0383 0.210051 10.6265 0.0984615 11.2543 0.0492307C11.8574 -4.58497e-08 12.5926 0 13.4765 0ZM19.4739 2.46154H12.7826C12.9148 2.84554 12.9974 3.05887 13.1345 3.22133C13.2759 3.39016 13.4577 3.52106 13.6632 3.60205C13.8978 3.69231 14.1721 3.69231 14.7206 3.69231H18.2794C18.8279 3.69231 19.1022 3.69231 19.3368 3.60205C19.5423 3.52106 19.7241 3.39016 19.8655 3.22133C20.0026 3.05723 20.0869 2.8439 20.2174 2.46318L19.4739 2.46154ZM13.6087 26.6667C13.3896 26.6667 13.1795 26.7531 13.0246 26.907C12.8696 27.0609 12.7826 27.2696 12.7826 27.4872C12.7826 27.7048 12.8696 27.9135 13.0246 28.0674C13.1795 28.2212 13.3896 28.3077 13.6087 28.3077H19.3913C19.6104 28.3077 19.8205 28.2212 19.9754 28.0674C20.1304 27.9135 20.2174 27.7048 20.2174 27.4872C20.2174 27.2696 20.1304 27.0609 19.9754 26.907C19.8205 26.7531 19.6104 26.6667 19.3913 26.6667H13.6087Z" fill="#C7CEF9"/>
</svg>
