<svg width="80" height="80" viewBox="0 0 80 80" fill="none" xmlns="http://www.w3.org/2000/svg">
<rect width="80" height="80" rx="16" fill="#161616"/>
<rect x="0.5" y="0.5" width="79" height="79" rx="15.5" stroke="#BCBCBC" stroke-opacity="0.2"/>
<path d="M28.625 56C28.1646 56 27.7789 55.8293 27.468 55.488C27.1571 55.1467 27.0011 54.7247 27 54.2222V47.1111C27 46.1333 27.3185 45.2966 27.9555 44.6009C28.5925 43.9052 29.3573 43.5567 30.25 43.5556H49.75C50.6437 43.5556 51.4091 43.904 52.0461 44.6009C52.6831 45.2978 53.0011 46.1345 53 47.1111V54.2222C53 54.7259 52.844 55.1484 52.532 55.4898C52.22 55.8311 51.8343 56.0012 51.375 56H28.625ZM35.125 41.7778C32.8771 41.7778 30.9612 40.9108 29.3774 39.1769C27.7935 37.443 27.0011 35.347 27 32.8889C26.9989 30.4308 27.7914 28.3348 29.3774 26.6009C30.9634 24.867 32.8793 24 35.125 24H44.875C47.1229 24 49.0393 24.867 50.6243 26.6009C52.2092 28.3348 53.0011 30.4308 53 32.8889C52.9989 35.347 52.2065 37.4436 50.6226 39.1787C49.0388 40.9138 47.1229 41.7801 44.875 41.7778H35.125ZM35.125 34.6667C35.5854 34.6667 35.9716 34.496 36.2836 34.1547C36.5956 33.8133 36.7511 33.3914 36.75 32.8889C36.7489 32.3864 36.5929 31.9644 36.282 31.6231C35.9711 31.2818 35.5854 31.1111 35.125 31.1111C34.6646 31.1111 34.2789 31.2818 33.968 31.6231C33.6571 31.9644 33.5011 32.3864 33.5 32.8889C33.4989 33.3914 33.6549 33.8139 33.968 34.1564C34.2811 34.499 34.6667 34.669 35.125 34.6667ZM44.875 34.6667C45.3354 34.6667 45.7216 34.496 46.0336 34.1547C46.3456 33.8133 46.5011 33.3914 46.5 32.8889C46.4989 32.3864 46.3429 31.9644 46.032 31.6231C45.7211 31.2818 45.3354 31.1111 44.875 31.1111C44.4146 31.1111 44.0289 31.2818 43.718 31.6231C43.4071 31.9644 43.2511 32.3864 43.25 32.8889C43.2489 33.3914 43.4049 33.8139 43.718 34.1564C44.0311 34.499 44.4167 34.669 44.875 34.6667Z" fill="#C7CEF9"/>
</svg>
