<svg width="32" height="32" viewBox="0 0 32 32" fill="none" xmlns="http://www.w3.org/2000/svg">
<path d="M4.625 32C4.16458 32 3.77892 31.8293 3.468 31.488C3.15708 31.1467 3.00108 30.7247 3 30.2222V23.1111C3 22.1333 3.3185 21.2966 3.9555 20.6009C4.5925 19.9052 5.35733 19.5567 6.25 19.5556H25.75C26.6437 19.5556 27.4091 19.904 28.0461 20.6009C28.6831 21.2978 29.0011 22.1345 29 23.1111V30.2222C29 30.7259 28.844 31.1484 28.532 31.4898C28.22 31.8311 27.8343 32.0012 27.375 32H4.625ZM11.125 17.7778C8.87708 17.7778 6.96121 16.9108 5.37738 15.1769C3.79354 13.443 3.00108 11.347 3 8.88889C2.99892 6.43081 3.79138 4.33481 5.37738 2.60089C6.96338 0.866962 8.87925 0 11.125 0H20.875C23.1229 0 25.0393 0.866962 26.6243 2.60089C28.2092 4.33481 29.0011 6.43081 29 8.88889C28.9989 11.347 28.2065 13.4436 26.6226 15.1787C25.0388 16.9138 23.1229 17.7801 20.875 17.7778H11.125ZM11.125 10.6667C11.5854 10.6667 11.9716 10.496 12.2836 10.1547C12.5956 9.81333 12.7511 9.39141 12.75 8.88889C12.7489 8.38637 12.5929 7.96444 12.282 7.62311C11.9711 7.28178 11.5854 7.11111 11.125 7.11111C10.6646 7.11111 10.2789 7.28178 9.968 7.62311C9.65708 7.96444 9.50108 8.38637 9.5 8.88889C9.49892 9.39141 9.65492 9.81392 9.968 10.1564C10.2811 10.499 10.6667 10.669 11.125 10.6667ZM20.875 10.6667C21.3354 10.6667 21.7216 10.496 22.0336 10.1547C22.3456 9.81333 22.5011 9.39141 22.5 8.88889C22.4989 8.38637 22.3429 7.96444 22.032 7.62311C21.7211 7.28178 21.3354 7.11111 20.875 7.11111C20.4146 7.11111 20.0289 7.28178 19.718 7.62311C19.4071 7.96444 19.2511 8.38637 19.25 8.88889C19.2489 9.39141 19.4049 9.81392 19.718 10.1564C20.0311 10.499 20.4167 10.669 20.875 10.6667Z" fill="#C7CEF9"/>
</svg>
