<svg width="32" height="32" viewBox="0 0 32 32" fill="none" xmlns="http://www.w3.org/2000/svg">
<path d="M5.21991 31.8351C4.67883 32.0472 4.17324 31.9948 3.70314 31.678C3.23305 31.3612 2.99867 30.922 3.00001 30.3603V22.6406C3.00001 22.1117 3.12657 21.609 3.3797 21.1324C3.63283 20.6572 3.99243 20.2775 4.45851 19.9934L6.86123 18.4558C7.09561 20.7285 7.39763 22.7048 7.76727 24.3845C8.13692 26.0642 8.74564 27.9802 9.59342 30.1325L5.21991 31.8351ZM12.3718 29.2154C11.9794 29.2154 11.6546 29.0871 11.3975 28.8305C11.1403 28.5739 10.9408 28.2702 10.7988 27.9193C10.0756 25.9136 9.52779 24.0598 9.15547 22.3578C8.78582 20.6572 8.60099 18.7392 8.60099 16.6039C8.60099 13.4173 9.10323 10.4782 10.1077 7.78646C11.1122 5.09475 12.6926 2.65374 14.8489 0.463456C14.9962 0.29326 15.1743 0.173469 15.3833 0.104081C15.5908 0.0346937 15.8025 0 16.0181 0C16.2337 0 16.4453 0.0346937 16.6529 0.104081C16.8605 0.173469 17.0393 0.29326 17.1893 0.463456C19.3456 2.65244 20.926 5.09278 21.9305 7.78449C22.9349 10.4762 23.4372 13.4167 23.4372 16.6059C23.4372 18.7726 23.2577 20.6919 22.8988 22.3637C22.5398 24.0356 21.986 25.8874 21.2374 27.9193C21.0954 28.2702 20.8958 28.5739 20.6387 28.8305C20.3816 29.0871 20.0574 29.2154 19.6664 29.2154H12.3718ZM16.0181 16.8278C16.8659 16.8278 17.5797 16.5437 18.1596 15.9755C18.7409 15.4086 19.0315 14.7108 19.0315 13.8821C19.0315 13.0534 18.7409 12.3556 18.1596 11.7887C17.5784 11.2218 16.8645 10.9377 16.0181 10.9364C15.1716 10.9351 14.4578 11.2192 13.8765 11.7887C13.2953 12.3556 13.0046 13.0534 13.0046 13.8821C13.0046 14.7108 13.2953 15.4086 13.8765 15.9755C14.4578 16.5424 15.1716 16.8265 16.0181 16.8278ZM26.7781 31.8744L22.4046 30.1698C23.2524 28.0175 23.8611 26.0956 24.2307 24.4041C24.6004 22.7126 24.9017 20.7292 25.1348 18.4538L27.5395 20.0307C28.0056 20.3148 28.3652 20.6945 28.6183 21.1697C28.8728 21.6463 29 22.149 29 22.6779V30.3957C29 30.9586 28.765 31.3985 28.2949 31.7153C27.8248 32.0322 27.3192 32.0845 26.7781 31.8724" fill="#C7CEF9"/>
</svg>
