<svg width="80" height="80" viewBox="0 0 80 80" fill="none" xmlns="http://www.w3.org/2000/svg">
<rect width="80" height="80" rx="16" fill="#161616"/>
<rect x="0.5" y="0.5" width="79" height="79" rx="15.5" stroke="#BCBCBC" stroke-opacity="0.2"/>
<path d="M29.2199 55.8351C28.6788 56.0472 28.1732 55.9948 27.7031 55.678C27.233 55.3612 26.9987 54.922 27 54.3603V46.6406C27 46.1117 27.1266 45.609 27.3797 45.1324C27.6328 44.6572 27.9924 44.2775 28.4585 43.9934L30.8612 42.4558C31.0956 44.7285 31.3976 46.7048 31.7673 48.3845C32.1369 50.0642 32.7456 51.9802 33.5934 54.1325L29.2199 55.8351ZM36.3718 53.2154C35.9794 53.2154 35.6546 53.0871 35.3975 52.8305C35.1403 52.5739 34.9408 52.2702 34.7988 51.9193C34.0756 49.9136 33.5278 48.0598 33.1555 46.3578C32.7858 44.6572 32.601 42.7392 32.601 40.6039C32.601 37.4173 33.1032 34.4782 34.1077 31.7865C35.1122 29.0947 36.6926 26.6537 38.8489 24.4635C38.9962 24.2933 39.1743 24.1735 39.3833 24.1041C39.5908 24.0347 39.8025 24 40.0181 24C40.2337 24 40.4453 24.0347 40.6529 24.1041C40.8605 24.1735 41.0393 24.2933 41.1893 24.4635C43.3456 26.6524 44.926 29.0928 45.9305 31.7845C46.9349 34.4762 47.4372 37.4167 47.4372 40.6059C47.4372 42.7726 47.2577 44.6919 46.8988 46.3637C46.5398 48.0356 45.986 49.8874 45.2374 51.9193C45.0954 52.2702 44.8958 52.5739 44.6387 52.8305C44.3816 53.0871 44.0574 53.2154 43.6664 53.2154H36.3718ZM40.0181 40.8278C40.8659 40.8278 41.5797 40.5437 42.1596 39.9755C42.7409 39.4086 43.0315 38.7108 43.0315 37.8821C43.0315 37.0534 42.7409 36.3556 42.1596 35.7887C41.5784 35.2218 40.8645 34.9377 40.0181 34.9364C39.1716 34.9351 38.4578 35.2192 37.8765 35.7887C37.2953 36.3556 37.0046 37.0534 37.0046 37.8821C37.0046 38.7108 37.2953 39.4086 37.8765 39.9755C38.4578 40.5424 39.1716 40.8265 40.0181 40.8278ZM50.7781 55.8744L46.4046 54.1698C47.2524 52.0175 47.8611 50.0956 48.2307 48.4041C48.6004 46.7126 48.9017 44.7292 49.1348 42.4538L51.5395 44.0307C52.0056 44.3148 52.3652 44.6945 52.6183 45.1697C52.8728 45.6463 53 46.149 53 46.6779V54.3957C53 54.9586 52.765 55.3985 52.2949 55.7153C51.8248 56.0322 51.3192 56.0845 50.7781 55.8724" fill="#C7CEF9"/>
</svg>
