<svg width="80" height="80" viewBox="0 0 80 80" fill="none" xmlns="http://www.w3.org/2000/svg">
<rect width="80" height="80" rx="16" fill="#161616"/>
<rect x="0.5" y="0.5" width="79" height="79" rx="15.5" stroke="#BCBCBC" stroke-opacity="0.2"/>
<path d="M37.4765 24H43.5235C44.4074 24 45.1426 24 45.7457 24.0492C46.3735 24.0985 46.9617 24.2101 47.5184 24.4923C48.3735 24.925 49.0687 25.6155 49.5043 26.4648C49.7885 27.0178 49.9009 27.6021 49.9504 28.2256C50 28.8246 50 29.5549 50 30.4328V49.5672C50 50.4451 50 51.1754 49.9504 51.7744C49.9009 52.3979 49.7885 52.9822 49.5043 53.5352C49.0691 54.3842 48.3746 55.0747 47.5201 55.5077C46.9617 55.79 46.3735 55.9015 45.7457 55.9508C45.1426 56 44.4074 56 43.5251 56H37.4765C36.5926 56 35.8574 56 35.2543 55.9508C34.6265 55.9015 34.0383 55.79 33.4816 55.5077C32.627 55.0759 31.9318 54.3866 31.4957 53.5385C31.2115 52.9838 31.0991 52.3996 31.0496 51.776C31 51.177 31 50.4468 31 49.5705V30.4328C31 29.5549 31 28.8246 31.0496 28.2256C31.0991 27.6021 31.2115 27.0178 31.4957 26.4648C31.9313 25.6155 32.6265 24.925 33.4816 24.4923C34.0383 24.2101 34.6265 24.0985 35.2543 24.0492C35.8574 24 36.5926 24 37.4765 24ZM43.4739 26.4615H36.7826C36.9148 26.8455 36.9974 27.0589 37.1345 27.2213C37.2759 27.3902 37.4577 27.5211 37.6632 27.6021C37.8978 27.6923 38.1721 27.6923 38.7206 27.6923H42.2794C42.8279 27.6923 43.1022 27.6923 43.3368 27.6021C43.5423 27.5211 43.7241 27.3902 43.8655 27.2213C44.0026 27.0572 44.0869 26.8439 44.2174 26.4632L43.4739 26.4615ZM37.6087 50.6667C37.3896 50.6667 37.1795 50.7531 37.0246 50.907C36.8696 51.0609 36.7826 51.2696 36.7826 51.4872C36.7826 51.7048 36.8696 51.9135 37.0246 52.0674C37.1795 52.2212 37.3896 52.3077 37.6087 52.3077H43.3913C43.6104 52.3077 43.8205 52.2212 43.9754 52.0674C44.1304 51.9135 44.2174 51.7048 44.2174 51.4872C44.2174 51.2696 44.1304 51.0609 43.9754 50.907C43.8205 50.7531 43.6104 50.6667 43.3913 50.6667H37.6087Z" fill="#C7CEF9"/>
</svg>
