<svg width="80" height="80" viewBox="0 0 80 80" fill="none" xmlns="http://www.w3.org/2000/svg">
<rect width="80" height="80" rx="16" fill="#161616"/>
<rect x="0.5" y="0.5" width="79" height="79" rx="15.5" stroke="#BCBCBC" stroke-opacity="0.2"/>
<g clip-path="url(#clip0_239_6957)">
<path d="M40 24C31.1636 24 24 31.1636 24 40C24 48.8364 31.1636 56 40 56C48.8364 56 56 48.8364 56 40C56 31.1636 48.8364 24 40 24ZM48.4109 38.2964L44.9627 41.6564L45.7782 46.4036C45.9236 47.2545 45.0273 47.9045 44.2645 47.5027L40 45.2618L35.7364 47.5027C34.9727 47.9073 34.0773 47.2536 34.2227 46.4036L35.0382 41.6564L31.59 38.2964C30.97 37.6927 31.3127 36.6391 32.1673 36.5155L36.9336 35.8209L39.0636 31.5009C39.2555 31.1118 39.6264 30.92 39.9982 30.92C40.3718 30.92 40.7455 31.1145 40.9373 31.5009L43.0673 35.8209L47.8336 36.5155C48.6882 36.6391 49.0309 37.6927 48.4109 38.2964Z" fill="#C7CEF9"/>
</g>
<defs>
<clipPath id="clip0_239_6957">
<rect width="32" height="32" fill="white" transform="translate(24 24)"/>
</clipPath>
</defs>
</svg>
